<?xml version="1.0" encoding="UTF-8"?>
<svg xmlns="http://www.w3.org/2000/svg" viewBox="0 0 24 24">
	<path d="M7,17l-.7-.7-2.8,2.8,1.4,1.4,2.1-2.1.8-.8-.7-.7ZM1,11v2h4v-2H1ZM19.1,17.7l-1.5-1.4-1.3,1.3,1.4,1.4,1.4,1.5,1.4-1.5-1.4-1.3ZM7.4,6l-2.4-2.4-1.4,1.4,2.5,2.5.3.3,1.4-1.4-.4-.4ZM11,19v4h2v-4h-2ZM19,11v2h4v-2h-4ZM19.1,3.5l-1.9,1.9-.9,1,1.4,1.4,1.1-1.1,1.8-1.8-1.4-1.4ZM11,1v4h2V1h-2Z" fill="#f39c12"/>
	<path d="M18,12c0,1.7-.6,3.1-1.8,4.2s-2.6,1.8-4.2,1.8-3.1-.6-4.2-1.8-1.8-2.6-1.8-4.2.6-3.1,1.8-4.2,2.6-1.8,4.2-1.8,3.1.6,4.2,1.8,1.8,2.6,1.8,4.2Z" fill="#f39c12"/>
</svg>