<?xml version="1.0" encoding="UTF-8"?><svg id="Logo" xmlns="http://www.w3.org/2000/svg" viewBox="0 0 722.44 733.94"><defs><style>.cls-1{fill:#000;}.cls-2{stroke:#000;stroke-linecap:square;stroke-linejoin:round;stroke-width:9px;}</style></defs><path class="cls-1" d="M354.81,354.5v13.66l.18.18v-13.93l-.18.09Z"/><polygon class="cls-1" points="364.99 2.7 364.99 3 362.58 1.79 363.17 1.79 364.99 2.7"/><path class="cls-2" d="M362.65,360.43l337.86-168.93,10.89-5.45-10.89-5.45L362.65,11.68l-2.35-1.18h-8.01L13.43,359.04l-6.61,6.8,6.61,6.81,330.61,340.05h18.62v-334.96l334.97,334.96h11.26v-2.53l-346.23-346.22v-3.52ZM362.65,22.58l326.96,163.47-326.96,163.47V22.58ZM352.9,707.81L20.42,365.84,352.9,23.87v683.94Z"/></svg>